<?xml version="1.0" encoding="utf-8" standalone="no"?>
<!DOCTYPE svg PUBLIC "-//W3C//DTD SVG 1.1//EN"
  "http://www.w3.org/Graphics/SVG/1.1/DTD/svg11.dtd">
<svg xmlns:xlink="http://www.w3.org/1999/xlink" width="720pt" height="648pt" viewBox="0 0 720 648" xmlns="http://www.w3.org/2000/svg" version="1.1">
 <metadata>
  <rdf:RDF xmlns:dc="http://purl.org/dc/elements/1.1/" xmlns:cc="http://creativecommons.org/ns#" xmlns:rdf="http://www.w3.org/1999/02/22-rdf-syntax-ns#">
   <cc:Work>
    <dc:type rdf:resource="http://purl.org/dc/dcmitype/StillImage"/>
    <dc:date>2022-11-13T23:47:50.357271</dc:date>
    <dc:format>image/svg+xml</dc:format>
    <dc:creator>
     <cc:Agent>
      <dc:title>Matplotlib v3.5.2, https://matplotlib.org/</dc:title>
     </cc:Agent>
    </dc:creator>
   </cc:Work>
  </rdf:RDF>
 </metadata>
 <defs>
  <style type="text/css">*{stroke-linejoin: round; stroke-linecap: butt}</style>
 </defs>
 <g id="figure_1">
  <g id="patch_1">
   <path d="M 0 648 
L 720 648 
L 720 0 
L 0 0 
L 0 648 
z
" style="fill: none"/>
  </g>
  <g id="axes_1">
   <g id="patch_2">
    <path d="M 144 550.8 
L 648 550.8 
L 648 77.76 
L 144 77.76 
L 144 550.8 
z
" style="fill: none"/>
   </g>
   <g id="patch_3">
    <path d="M 166.909091 254.801178 
L 179.44294 254.801178 
L 179.44294 99.261818 
L 166.909091 99.261818 
z
" clip-path="url(#p1535249980)" style="fill: #0095b6; stroke: #696969; stroke-linejoin: miter"/>
   </g>
   <g id="patch_4">
    <path d="M 180.83559 254.801178 
L 193.369439 254.801178 
L 193.369439 160.350358 
L 180.83559 160.350358 
z
" clip-path="url(#p1535249980)" style="fill: #0095b6; stroke: #696969; stroke-linejoin: miter"/>
   </g>
   <g id="patch_5">
    <path d="M 194.762089 254.801178 
L 207.295938 254.801178 
L 207.295938 244.539433 
L 194.762089 244.539433 
z
" clip-path="url(#p1535249980)" style="fill: #0095b6; stroke: #696969; stroke-linejoin: miter"/>
   </g>
   <g id="patch_6">
    <path d="M 208.688588 254.801178 
L 221.222437 254.801178 
L 221.222437 286.706605 
L 208.688588 286.706605 
z
" clip-path="url(#p1535249980)" style="fill: #0095b6; stroke: #696969; stroke-linejoin: miter"/>
   </g>
   <g id="patch_7">
    <path d="M 222.615087 254.801178 
L 235.148936 254.801178 
L 235.148936 280.499754 
L 222.615087 280.499754 
z
" clip-path="url(#p1535249980)" style="fill: #0095b6; stroke: #696969; stroke-linejoin: miter"/>
   </g>
   <g id="patch_8">
    <path d="M 236.541586 254.801178 
L 249.075435 254.801178 
L 249.075435 350.071382 
L 236.541586 350.071382 
z
" clip-path="url(#p1535249980)" style="fill: #0095b6; stroke: #696969; stroke-linejoin: miter"/>
   </g>
   <g id="patch_9">
    <path d="M 250.468085 254.801178 
L 263.001934 254.801178 
L 263.001934 292.127451 
L 250.468085 292.127451 
z
" clip-path="url(#p1535249980)" style="fill: #0095b6; stroke: #696969; stroke-linejoin: miter"/>
   </g>
   <g id="patch_10">
    <path d="M 264.394584 254.801178 
L 276.928433 254.801178 
L 276.928433 286.568962 
L 264.394584 286.568962 
z
" clip-path="url(#p1535249980)" style="fill: #0095b6; stroke: #696969; stroke-linejoin: miter"/>
   </g>
   <g id="patch_11">
    <path d="M 278.321083 254.801178 
L 290.854932 254.801178 
L 290.854932 210.912385 
L 278.321083 210.912385 
z
" clip-path="url(#p1535249980)" style="fill: #0095b6; stroke: #696969; stroke-linejoin: miter"/>
   </g>
   <g id="patch_12">
    <path d="M 292.247582 254.801178 
L 304.781431 254.801178 
L 304.781431 321.317614 
L 292.247582 321.317614 
z
" clip-path="url(#p1535249980)" style="fill: #0095b6; stroke: #696969; stroke-linejoin: miter"/>
   </g>
   <g id="patch_13">
    <path d="M 306.174081 254.801178 
L 318.70793 254.801178 
L 318.70793 440.772982 
L 306.174081 440.772982 
z
" clip-path="url(#p1535249980)" style="fill: #0095b6; stroke: #696969; stroke-linejoin: miter"/>
   </g>
   <g id="patch_14">
    <path d="M 320.10058 254.801178 
L 332.634429 254.801178 
L 332.634429 284.191153 
L 320.10058 284.191153 
z
" clip-path="url(#p1535249980)" style="fill: #0095b6; stroke: #696969; stroke-linejoin: miter"/>
   </g>
   <g id="patch_15">
    <path d="M 334.027079 254.801178 
L 346.560928 254.801178 
L 346.560928 265.253209 
L 334.027079 265.253209 
z
" clip-path="url(#p1535249980)" style="fill: #0095b6; stroke: #696969; stroke-linejoin: miter"/>
   </g>
   <g id="patch_16">
    <path d="M 347.953578 254.801178 
L 360.487427 254.801178 
L 360.487427 268.076555 
L 347.953578 268.076555 
z
" clip-path="url(#p1535249980)" style="fill: #0095b6; stroke: #696969; stroke-linejoin: miter"/>
   </g>
   <g id="patch_17">
    <path d="M 361.880077 254.801178 
L 374.413926 254.801178 
L 374.413926 281.503856 
L 361.880077 281.503856 
z
" clip-path="url(#p1535249980)" style="fill: #0095b6; stroke: #696969; stroke-linejoin: miter"/>
   </g>
   <g id="patch_18">
    <path d="M 375.806576 254.801178 
L 388.340426 254.801178 
L 388.340426 229.277045 
L 375.806576 229.277045 
z
" clip-path="url(#p1535249980)" style="fill: #0095b6; stroke: #696969; stroke-linejoin: miter"/>
   </g>
   <g id="patch_19">
    <path d="M 389.733075 254.801178 
L 402.266925 254.801178 
L 402.266925 127.591408 
L 389.733075 127.591408 
z
" clip-path="url(#p1535249980)" style="fill: #0095b6; stroke: #696969; stroke-linejoin: miter"/>
   </g>
   <g id="patch_20">
    <path d="M 403.659574 254.801178 
L 416.193424 254.801178 
L 416.193424 153.235109 
L 403.659574 153.235109 
z
" clip-path="url(#p1535249980)" style="fill: #0095b6; stroke: #696969; stroke-linejoin: miter"/>
   </g>
   <g id="patch_21">
    <path d="M 417.586074 254.801178 
L 430.119923 254.801178 
L 430.119923 215.449206 
L 417.586074 215.449206 
z
" clip-path="url(#p1535249980)" style="fill: #0095b6; stroke: #696969; stroke-linejoin: miter"/>
   </g>
   <g id="patch_22">
    <path d="M 431.512573 254.801178 
L 444.046422 254.801178 
L 444.046422 204.440294 
L 431.512573 204.440294 
z
" clip-path="url(#p1535249980)" style="fill: #0095b6; stroke: #696969; stroke-linejoin: miter"/>
   </g>
   <g id="patch_23">
    <path d="M 445.439072 254.801178 
L 457.972921 254.801178 
L 457.972921 244.114861 
L 445.439072 244.114861 
z
" clip-path="url(#p1535249980)" style="fill: #0095b6; stroke: #696969; stroke-linejoin: miter"/>
   </g>
   <g id="patch_24">
    <path d="M 459.365571 254.801178 
L 471.89942 254.801178 
L 471.89942 262.554884 
L 459.365571 262.554884 
z
" clip-path="url(#p1535249980)" style="fill: #0095b6; stroke: #696969; stroke-linejoin: miter"/>
   </g>
   <g id="patch_25">
    <path d="M 473.29207 254.801178 
L 485.825919 254.801178 
L 485.825919 227.472974 
L 473.29207 227.472974 
z
" clip-path="url(#p1535249980)" style="fill: #0095b6; stroke: #696969; stroke-linejoin: miter"/>
   </g>
   <g id="patch_26">
    <path d="M 487.218569 254.801178 
L 499.752418 254.801178 
L 499.752418 258.890458 
L 487.218569 258.890458 
z
" clip-path="url(#p1535249980)" style="fill: #0095b6; stroke: #696969; stroke-linejoin: miter"/>
   </g>
   <g id="patch_27">
    <path d="M 501.145068 254.801178 
L 513.678917 254.801178 
L 513.678917 247.142051 
L 501.145068 247.142051 
z
" clip-path="url(#p1535249980)" style="fill: #0095b6; stroke: #696969; stroke-linejoin: miter"/>
   </g>
   <g id="patch_28">
    <path d="M 515.071567 254.801178 
L 527.605416 254.801178 
L 527.605416 260.72136 
L 515.071567 260.72136 
z
" clip-path="url(#p1535249980)" style="fill: #0095b6; stroke: #696969; stroke-linejoin: miter"/>
   </g>
   <g id="patch_29">
    <path d="M 528.998066 254.801178 
L 541.531915 254.801178 
L 541.531915 251.990283 
L 528.998066 251.990283 
z
" clip-path="url(#p1535249980)" style="fill: #0095b6; stroke: #696969; stroke-linejoin: miter"/>
   </g>
   <g id="patch_30">
    <path d="M 542.924565 254.801178 
L 555.458414 254.801178 
L 555.458414 366.691638 
L 542.924565 366.691638 
z
" clip-path="url(#p1535249980)" style="fill: #0095b6; stroke: #696969; stroke-linejoin: miter"/>
   </g>
   <g id="patch_31">
    <path d="M 556.851064 254.801178 
L 569.384913 254.801178 
L 569.384913 279.378613 
L 556.851064 279.378613 
z
" clip-path="url(#p1535249980)" style="fill: #0095b6; stroke: #696969; stroke-linejoin: miter"/>
   </g>
   <g id="patch_32">
    <path d="M 570.777563 254.801178 
L 583.311412 254.801178 
L 583.311412 390.278238 
L 570.777563 390.278238 
z
" clip-path="url(#p1535249980)" style="fill: #0095b6; stroke: #696969; stroke-linejoin: miter"/>
   </g>
   <g id="patch_33">
    <path d="M 584.704062 254.801178 
L 597.237911 254.801178 
L 597.237911 490.949902 
L 584.704062 490.949902 
z
" clip-path="url(#p1535249980)" style="fill: #0095b6; stroke: #696969; stroke-linejoin: miter"/>
   </g>
   <g id="patch_34">
    <path d="M 598.630561 254.801178 
L 611.16441 254.801178 
L 611.16441 529.298182 
L 598.630561 529.298182 
z
" clip-path="url(#p1535249980)" style="fill: #0095b6; stroke: #696969; stroke-linejoin: miter"/>
   </g>
   <g id="patch_35">
    <path d="M 612.55706 254.801178 
L 625.090909 254.801178 
L 625.090909 188.267291 
L 612.55706 188.267291 
z
" clip-path="url(#p1535249980)" style="fill: #0095b6; stroke: #696969; stroke-linejoin: miter"/>
   </g>
   <g id="matplotlib.axis_1">
    <g id="xtick_1">
     <g id="line2d_1">
      <defs>
       <path id="me3b16b4f31" d="M 0 0 
L 0 3.5 
" style="stroke: #000000; stroke-width: 0.8"/>
      </defs>
      <g>
       <use xlink:href="#me3b16b4f31" x="173.176015" y="550.8" style="stroke: #000000; stroke-width: 0.8"/>
      </g>
     </g>
     <g id="text_1">
      <!-- 46 -->
      <g transform="translate(149.820078 587.862813)scale(0.42 -0.42)">
       <defs>
        <path id="ArialMT-34" d="M 2069 0 
L 2069 1097 
L 81 1097 
L 81 1613 
L 2172 4581 
L 2631 4581 
L 2631 1613 
L 3250 1613 
L 3250 1097 
L 2631 1097 
L 2631 0 
L 2069 0 
z
M 2069 1613 
L 2069 3678 
L 634 1613 
L 2069 1613 
z
" transform="scale(0.015625)"/>
        <path id="ArialMT-36" d="M 3184 3459 
L 2625 3416 
Q 2550 3747 2413 3897 
Q 2184 4138 1850 4138 
Q 1581 4138 1378 3988 
Q 1113 3794 959 3422 
Q 806 3050 800 2363 
Q 1003 2672 1297 2822 
Q 1591 2972 1913 2972 
Q 2475 2972 2870 2558 
Q 3266 2144 3266 1488 
Q 3266 1056 3080 686 
Q 2894 316 2569 119 
Q 2244 -78 1831 -78 
Q 1128 -78 684 439 
Q 241 956 241 2144 
Q 241 3472 731 4075 
Q 1159 4600 1884 4600 
Q 2425 4600 2770 4297 
Q 3116 3994 3184 3459 
z
M 888 1484 
Q 888 1194 1011 928 
Q 1134 663 1356 523 
Q 1578 384 1822 384 
Q 2178 384 2434 671 
Q 2691 959 2691 1453 
Q 2691 1928 2437 2201 
Q 2184 2475 1800 2475 
Q 1419 2475 1153 2201 
Q 888 1928 888 1484 
z
" transform="scale(0.015625)"/>
       </defs>
       <use xlink:href="#ArialMT-34"/>
       <use xlink:href="#ArialMT-36" x="55.615234"/>
      </g>
     </g>
    </g>
    <g id="xtick_2">
     <g id="line2d_2">
      <g>
       <use xlink:href="#me3b16b4f31" x="187.102515" y="550.8" style="stroke: #000000; stroke-width: 0.8"/>
      </g>
     </g>
    </g>
    <g id="xtick_3">
     <g id="line2d_3">
      <g>
       <use xlink:href="#me3b16b4f31" x="201.029014" y="550.8" style="stroke: #000000; stroke-width: 0.8"/>
      </g>
     </g>
    </g>
    <g id="xtick_4">
     <g id="line2d_4">
      <g>
       <use xlink:href="#me3b16b4f31" x="214.955513" y="550.8" style="stroke: #000000; stroke-width: 0.8"/>
      </g>
     </g>
    </g>
    <g id="xtick_5">
     <g id="line2d_5">
      <g>
       <use xlink:href="#me3b16b4f31" x="228.882012" y="550.8" style="stroke: #000000; stroke-width: 0.8"/>
      </g>
     </g>
    </g>
    <g id="xtick_6">
     <g id="line2d_6">
      <g>
       <use xlink:href="#me3b16b4f31" x="242.808511" y="550.8" style="stroke: #000000; stroke-width: 0.8"/>
      </g>
     </g>
    </g>
    <g id="xtick_7">
     <g id="line2d_7">
      <g>
       <use xlink:href="#me3b16b4f31" x="256.73501" y="550.8" style="stroke: #000000; stroke-width: 0.8"/>
      </g>
     </g>
    </g>
    <g id="xtick_8">
     <g id="line2d_8">
      <g>
       <use xlink:href="#me3b16b4f31" x="270.661509" y="550.8" style="stroke: #000000; stroke-width: 0.8"/>
      </g>
     </g>
    </g>
    <g id="xtick_9">
     <g id="line2d_9">
      <g>
       <use xlink:href="#me3b16b4f31" x="284.588008" y="550.8" style="stroke: #000000; stroke-width: 0.8"/>
      </g>
     </g>
     <g id="text_2">
      <!-- 54 -->
      <g transform="translate(261.23207 587.862813)scale(0.42 -0.42)">
       <defs>
        <path id="ArialMT-35" d="M 266 1200 
L 856 1250 
Q 922 819 1161 601 
Q 1400 384 1738 384 
Q 2144 384 2425 690 
Q 2706 997 2706 1503 
Q 2706 1984 2436 2262 
Q 2166 2541 1728 2541 
Q 1456 2541 1237 2417 
Q 1019 2294 894 2097 
L 366 2166 
L 809 4519 
L 3088 4519 
L 3088 3981 
L 1259 3981 
L 1013 2750 
Q 1425 3038 1878 3038 
Q 2478 3038 2890 2622 
Q 3303 2206 3303 1553 
Q 3303 931 2941 478 
Q 2500 -78 1738 -78 
Q 1113 -78 717 272 
Q 322 622 266 1200 
z
" transform="scale(0.015625)"/>
       </defs>
       <use xlink:href="#ArialMT-35"/>
       <use xlink:href="#ArialMT-34" x="55.615234"/>
      </g>
     </g>
    </g>
    <g id="xtick_10">
     <g id="line2d_10">
      <g>
       <use xlink:href="#me3b16b4f31" x="298.514507" y="550.8" style="stroke: #000000; stroke-width: 0.8"/>
      </g>
     </g>
    </g>
    <g id="xtick_11">
     <g id="line2d_11">
      <g>
       <use xlink:href="#me3b16b4f31" x="312.441006" y="550.8" style="stroke: #000000; stroke-width: 0.8"/>
      </g>
     </g>
    </g>
    <g id="xtick_12">
     <g id="line2d_12">
      <g>
       <use xlink:href="#me3b16b4f31" x="326.367505" y="550.8" style="stroke: #000000; stroke-width: 0.8"/>
      </g>
     </g>
    </g>
    <g id="xtick_13">
     <g id="line2d_13">
      <g>
       <use xlink:href="#me3b16b4f31" x="340.294004" y="550.8" style="stroke: #000000; stroke-width: 0.8"/>
      </g>
     </g>
    </g>
    <g id="xtick_14">
     <g id="line2d_14">
      <g>
       <use xlink:href="#me3b16b4f31" x="354.220503" y="550.8" style="stroke: #000000; stroke-width: 0.8"/>
      </g>
     </g>
    </g>
    <g id="xtick_15">
     <g id="line2d_15">
      <g>
       <use xlink:href="#me3b16b4f31" x="368.147002" y="550.8" style="stroke: #000000; stroke-width: 0.8"/>
      </g>
     </g>
    </g>
    <g id="xtick_16">
     <g id="line2d_16">
      <g>
       <use xlink:href="#me3b16b4f31" x="382.073501" y="550.8" style="stroke: #000000; stroke-width: 0.8"/>
      </g>
     </g>
    </g>
    <g id="xtick_17">
     <g id="line2d_17">
      <g>
       <use xlink:href="#me3b16b4f31" x="396" y="550.8" style="stroke: #000000; stroke-width: 0.8"/>
      </g>
     </g>
     <g id="text_3">
      <!-- 62 -->
      <g transform="translate(372.644062 587.862813)scale(0.42 -0.42)">
       <defs>
        <path id="ArialMT-32" d="M 3222 541 
L 3222 0 
L 194 0 
Q 188 203 259 391 
Q 375 700 629 1000 
Q 884 1300 1366 1694 
Q 2113 2306 2375 2664 
Q 2638 3022 2638 3341 
Q 2638 3675 2398 3904 
Q 2159 4134 1775 4134 
Q 1369 4134 1125 3890 
Q 881 3647 878 3216 
L 300 3275 
Q 359 3922 746 4261 
Q 1134 4600 1788 4600 
Q 2447 4600 2831 4234 
Q 3216 3869 3216 3328 
Q 3216 3053 3103 2787 
Q 2991 2522 2730 2228 
Q 2469 1934 1863 1422 
Q 1356 997 1212 845 
Q 1069 694 975 541 
L 3222 541 
z
" transform="scale(0.015625)"/>
       </defs>
       <use xlink:href="#ArialMT-36"/>
       <use xlink:href="#ArialMT-32" x="55.615234"/>
      </g>
     </g>
    </g>
    <g id="xtick_18">
     <g id="line2d_18">
      <g>
       <use xlink:href="#me3b16b4f31" x="409.926499" y="550.8" style="stroke: #000000; stroke-width: 0.8"/>
      </g>
     </g>
    </g>
    <g id="xtick_19">
     <g id="line2d_19">
      <g>
       <use xlink:href="#me3b16b4f31" x="423.852998" y="550.8" style="stroke: #000000; stroke-width: 0.8"/>
      </g>
     </g>
    </g>
    <g id="xtick_20">
     <g id="line2d_20">
      <g>
       <use xlink:href="#me3b16b4f31" x="437.779497" y="550.8" style="stroke: #000000; stroke-width: 0.8"/>
      </g>
     </g>
    </g>
    <g id="xtick_21">
     <g id="line2d_21">
      <g>
       <use xlink:href="#me3b16b4f31" x="451.705996" y="550.8" style="stroke: #000000; stroke-width: 0.8"/>
      </g>
     </g>
    </g>
    <g id="xtick_22">
     <g id="line2d_22">
      <g>
       <use xlink:href="#me3b16b4f31" x="465.632495" y="550.8" style="stroke: #000000; stroke-width: 0.8"/>
      </g>
     </g>
    </g>
    <g id="xtick_23">
     <g id="line2d_23">
      <g>
       <use xlink:href="#me3b16b4f31" x="479.558994" y="550.8" style="stroke: #000000; stroke-width: 0.8"/>
      </g>
     </g>
    </g>
    <g id="xtick_24">
     <g id="line2d_24">
      <g>
       <use xlink:href="#me3b16b4f31" x="493.485493" y="550.8" style="stroke: #000000; stroke-width: 0.8"/>
      </g>
     </g>
    </g>
    <g id="xtick_25">
     <g id="line2d_25">
      <g>
       <use xlink:href="#me3b16b4f31" x="507.411992" y="550.8" style="stroke: #000000; stroke-width: 0.8"/>
      </g>
     </g>
     <g id="text_4">
      <!-- 70 -->
      <g transform="translate(484.056055 587.862813)scale(0.42 -0.42)">
       <defs>
        <path id="ArialMT-37" d="M 303 3981 
L 303 4522 
L 3269 4522 
L 3269 4084 
Q 2831 3619 2401 2847 
Q 1972 2075 1738 1259 
Q 1569 684 1522 0 
L 944 0 
Q 953 541 1156 1306 
Q 1359 2072 1739 2783 
Q 2119 3494 2547 3981 
L 303 3981 
z
" transform="scale(0.015625)"/>
        <path id="ArialMT-30" d="M 266 2259 
Q 266 3072 433 3567 
Q 600 4063 929 4331 
Q 1259 4600 1759 4600 
Q 2128 4600 2406 4451 
Q 2684 4303 2865 4023 
Q 3047 3744 3150 3342 
Q 3253 2941 3253 2259 
Q 3253 1453 3087 958 
Q 2922 463 2592 192 
Q 2263 -78 1759 -78 
Q 1097 -78 719 397 
Q 266 969 266 2259 
z
M 844 2259 
Q 844 1131 1108 757 
Q 1372 384 1759 384 
Q 2147 384 2411 759 
Q 2675 1134 2675 2259 
Q 2675 3391 2411 3762 
Q 2147 4134 1753 4134 
Q 1366 4134 1134 3806 
Q 844 3388 844 2259 
z
" transform="scale(0.015625)"/>
       </defs>
       <use xlink:href="#ArialMT-37"/>
       <use xlink:href="#ArialMT-30" x="55.615234"/>
      </g>
     </g>
    </g>
    <g id="xtick_26">
     <g id="line2d_26">
      <g>
       <use xlink:href="#me3b16b4f31" x="521.338491" y="550.8" style="stroke: #000000; stroke-width: 0.8"/>
      </g>
     </g>
    </g>
    <g id="xtick_27">
     <g id="line2d_27">
      <g>
       <use xlink:href="#me3b16b4f31" x="535.26499" y="550.8" style="stroke: #000000; stroke-width: 0.8"/>
      </g>
     </g>
    </g>
    <g id="xtick_28">
     <g id="line2d_28">
      <g>
       <use xlink:href="#me3b16b4f31" x="549.191489" y="550.8" style="stroke: #000000; stroke-width: 0.8"/>
      </g>
     </g>
    </g>
    <g id="xtick_29">
     <g id="line2d_29">
      <g>
       <use xlink:href="#me3b16b4f31" x="563.117988" y="550.8" style="stroke: #000000; stroke-width: 0.8"/>
      </g>
     </g>
    </g>
    <g id="xtick_30">
     <g id="line2d_30">
      <g>
       <use xlink:href="#me3b16b4f31" x="577.044487" y="550.8" style="stroke: #000000; stroke-width: 0.8"/>
      </g>
     </g>
    </g>
    <g id="xtick_31">
     <g id="line2d_31">
      <g>
       <use xlink:href="#me3b16b4f31" x="590.970986" y="550.8" style="stroke: #000000; stroke-width: 0.8"/>
      </g>
     </g>
    </g>
    <g id="xtick_32">
     <g id="line2d_32">
      <g>
       <use xlink:href="#me3b16b4f31" x="604.897485" y="550.8" style="stroke: #000000; stroke-width: 0.8"/>
      </g>
     </g>
    </g>
    <g id="xtick_33">
     <g id="line2d_33">
      <g>
       <use xlink:href="#me3b16b4f31" x="618.823985" y="550.8" style="stroke: #000000; stroke-width: 0.8"/>
      </g>
     </g>
     <g id="text_5">
      <!-- 78 -->
      <g transform="translate(595.468047 587.862813)scale(0.42 -0.42)">
       <defs>
        <path id="ArialMT-38" d="M 1131 2484 
Q 781 2613 612 2850 
Q 444 3088 444 3419 
Q 444 3919 803 4259 
Q 1163 4600 1759 4600 
Q 2359 4600 2725 4251 
Q 3091 3903 3091 3403 
Q 3091 3084 2923 2848 
Q 2756 2613 2416 2484 
Q 2838 2347 3058 2040 
Q 3278 1734 3278 1309 
Q 3278 722 2862 322 
Q 2447 -78 1769 -78 
Q 1091 -78 675 323 
Q 259 725 259 1325 
Q 259 1772 486 2073 
Q 713 2375 1131 2484 
z
M 1019 3438 
Q 1019 3113 1228 2906 
Q 1438 2700 1772 2700 
Q 2097 2700 2305 2904 
Q 2513 3109 2513 3406 
Q 2513 3716 2298 3927 
Q 2084 4138 1766 4138 
Q 1444 4138 1231 3931 
Q 1019 3725 1019 3438 
z
M 838 1322 
Q 838 1081 952 856 
Q 1066 631 1291 507 
Q 1516 384 1775 384 
Q 2178 384 2440 643 
Q 2703 903 2703 1303 
Q 2703 1709 2433 1975 
Q 2163 2241 1756 2241 
Q 1359 2241 1098 1978 
Q 838 1716 838 1322 
z
" transform="scale(0.015625)"/>
       </defs>
       <use xlink:href="#ArialMT-37"/>
       <use xlink:href="#ArialMT-38" x="55.615234"/>
      </g>
     </g>
    </g>
   </g>
   <g id="matplotlib.axis_2">
    <g id="ytick_1">
     <g id="line2d_34">
      <defs>
       <path id="m23316211fb" d="M 0 0 
L -3.5 0 
" style="stroke: #000000; stroke-width: 0.8"/>
      </defs>
      <g>
       <use xlink:href="#m23316211fb" x="144" y="403.940093" style="stroke: #000000; stroke-width: 0.8"/>
      </g>
     </g>
     <g id="text_6">
      <!-- −1 -->
      <g transform="translate(89.113438 418.971499)scale(0.42 -0.42)">
       <defs>
        <path id="ArialMT-2212" d="M 3381 1997 
L 356 1997 
L 356 2522 
L 3381 2522 
L 3381 1997 
z
" transform="scale(0.015625)"/>
        <path id="ArialMT-31" d="M 2384 0 
L 1822 0 
L 1822 3584 
Q 1619 3391 1289 3197 
Q 959 3003 697 2906 
L 697 3450 
Q 1169 3672 1522 3987 
Q 1875 4303 2022 4600 
L 2384 4600 
L 2384 0 
z
" transform="scale(0.015625)"/>
       </defs>
       <use xlink:href="#ArialMT-2212"/>
       <use xlink:href="#ArialMT-31" x="58.398438"/>
      </g>
     </g>
    </g>
    <g id="ytick_2">
     <g id="line2d_35">
      <g>
       <use xlink:href="#m23316211fb" x="144" y="254.801178" style="stroke: #000000; stroke-width: 0.8"/>
      </g>
     </g>
     <g id="text_7">
      <!-- 0 -->
      <g transform="translate(113.644063 269.832584)scale(0.42 -0.42)">
       <use xlink:href="#ArialMT-30"/>
      </g>
     </g>
    </g>
    <g id="ytick_3">
     <g id="line2d_36">
      <g>
       <use xlink:href="#m23316211fb" x="144" y="105.662262" style="stroke: #000000; stroke-width: 0.8"/>
      </g>
     </g>
     <g id="text_8">
      <!-- 1 -->
      <g transform="translate(113.644063 120.693668)scale(0.42 -0.42)">
       <use xlink:href="#ArialMT-31"/>
      </g>
     </g>
    </g>
    <g id="text_9">
     <!-- Mean PAD -->
     <g transform="translate(75.970937 423.795937)rotate(-90)scale(0.46 -0.46)">
      <defs>
       <path id="ArialMT-4d" d="M 475 0 
L 475 4581 
L 1388 4581 
L 2472 1338 
Q 2622 884 2691 659 
Q 2769 909 2934 1394 
L 4031 4581 
L 4847 4581 
L 4847 0 
L 4263 0 
L 4263 3834 
L 2931 0 
L 2384 0 
L 1059 3900 
L 1059 0 
L 475 0 
z
" transform="scale(0.015625)"/>
       <path id="ArialMT-65" d="M 2694 1069 
L 3275 997 
Q 3138 488 2766 206 
Q 2394 -75 1816 -75 
Q 1088 -75 661 373 
Q 234 822 234 1631 
Q 234 2469 665 2931 
Q 1097 3394 1784 3394 
Q 2450 3394 2872 2941 
Q 3294 2488 3294 1666 
Q 3294 1616 3291 1516 
L 816 1516 
Q 847 969 1125 678 
Q 1403 388 1819 388 
Q 2128 388 2347 550 
Q 2566 713 2694 1069 
z
M 847 1978 
L 2700 1978 
Q 2663 2397 2488 2606 
Q 2219 2931 1791 2931 
Q 1403 2931 1139 2672 
Q 875 2413 847 1978 
z
" transform="scale(0.015625)"/>
       <path id="ArialMT-61" d="M 2588 409 
Q 2275 144 1986 34 
Q 1697 -75 1366 -75 
Q 819 -75 525 192 
Q 231 459 231 875 
Q 231 1119 342 1320 
Q 453 1522 633 1644 
Q 813 1766 1038 1828 
Q 1203 1872 1538 1913 
Q 2219 1994 2541 2106 
Q 2544 2222 2544 2253 
Q 2544 2597 2384 2738 
Q 2169 2928 1744 2928 
Q 1347 2928 1158 2789 
Q 969 2650 878 2297 
L 328 2372 
Q 403 2725 575 2942 
Q 747 3159 1072 3276 
Q 1397 3394 1825 3394 
Q 2250 3394 2515 3294 
Q 2781 3194 2906 3042 
Q 3031 2891 3081 2659 
Q 3109 2516 3109 2141 
L 3109 1391 
Q 3109 606 3145 398 
Q 3181 191 3288 0 
L 2700 0 
Q 2613 175 2588 409 
z
M 2541 1666 
Q 2234 1541 1622 1453 
Q 1275 1403 1131 1340 
Q 988 1278 909 1158 
Q 831 1038 831 891 
Q 831 666 1001 516 
Q 1172 366 1500 366 
Q 1825 366 2078 508 
Q 2331 650 2450 897 
Q 2541 1088 2541 1459 
L 2541 1666 
z
" transform="scale(0.015625)"/>
       <path id="ArialMT-6e" d="M 422 0 
L 422 3319 
L 928 3319 
L 928 2847 
Q 1294 3394 1984 3394 
Q 2284 3394 2536 3286 
Q 2788 3178 2913 3003 
Q 3038 2828 3088 2588 
Q 3119 2431 3119 2041 
L 3119 0 
L 2556 0 
L 2556 2019 
Q 2556 2363 2490 2533 
Q 2425 2703 2258 2804 
Q 2091 2906 1866 2906 
Q 1506 2906 1245 2678 
Q 984 2450 984 1813 
L 984 0 
L 422 0 
z
" transform="scale(0.015625)"/>
       <path id="ArialMT-20" transform="scale(0.015625)"/>
       <path id="ArialMT-50" d="M 494 0 
L 494 4581 
L 2222 4581 
Q 2678 4581 2919 4538 
Q 3256 4481 3484 4323 
Q 3713 4166 3852 3881 
Q 3991 3597 3991 3256 
Q 3991 2672 3619 2267 
Q 3247 1863 2275 1863 
L 1100 1863 
L 1100 0 
L 494 0 
z
M 1100 2403 
L 2284 2403 
Q 2872 2403 3119 2622 
Q 3366 2841 3366 3238 
Q 3366 3525 3220 3729 
Q 3075 3934 2838 4000 
Q 2684 4041 2272 4041 
L 1100 4041 
L 1100 2403 
z
" transform="scale(0.015625)"/>
       <path id="ArialMT-41" d="M -9 0 
L 1750 4581 
L 2403 4581 
L 4278 0 
L 3588 0 
L 3053 1388 
L 1138 1388 
L 634 0 
L -9 0 
z
M 1313 1881 
L 2866 1881 
L 2388 3150 
Q 2169 3728 2063 4100 
Q 1975 3659 1816 3225 
L 1313 1881 
z
" transform="scale(0.015625)"/>
       <path id="ArialMT-44" d="M 494 0 
L 494 4581 
L 2072 4581 
Q 2606 4581 2888 4516 
Q 3281 4425 3559 4188 
Q 3922 3881 4101 3404 
Q 4281 2928 4281 2316 
Q 4281 1794 4159 1391 
Q 4038 988 3847 723 
Q 3656 459 3429 307 
Q 3203 156 2883 78 
Q 2563 0 2147 0 
L 494 0 
z
M 1100 541 
L 2078 541 
Q 2531 541 2789 625 
Q 3047 709 3200 863 
Q 3416 1078 3536 1442 
Q 3656 1806 3656 2325 
Q 3656 3044 3420 3430 
Q 3184 3816 2847 3947 
Q 2603 4041 2063 4041 
L 1100 4041 
L 1100 541 
z
" transform="scale(0.015625)"/>
      </defs>
      <use xlink:href="#ArialMT-4d"/>
      <use xlink:href="#ArialMT-65" x="83.300781"/>
      <use xlink:href="#ArialMT-61" x="138.916016"/>
      <use xlink:href="#ArialMT-6e" x="194.53125"/>
      <use xlink:href="#ArialMT-20" x="250.146484"/>
      <use xlink:href="#ArialMT-50" x="277.929688"/>
      <use xlink:href="#ArialMT-41" x="337.253906"/>
      <use xlink:href="#ArialMT-44" x="403.953125"/>
     </g>
    </g>
   </g>
   <g id="line2d_37">
    <path d="M 173.176015 223.146064 
L 187.102515 226.244695 
L 201.029014 229.343326 
L 214.955513 232.441957 
L 228.882012 235.540588 
L 242.808511 238.639219 
L 256.73501 241.73785 
L 270.661509 244.836481 
L 284.588008 247.935112 
L 298.514507 251.033744 
L 312.441006 254.132375 
L 326.367505 257.231006 
L 340.294004 260.329637 
L 354.220503 263.428268 
L 368.147002 266.526899 
L 382.073501 269.62553 
L 396 272.724161 
L 409.926499 275.822792 
L 423.852998 278.921423 
L 437.779497 282.020054 
L 451.705996 285.118685 
L 465.632495 288.217316 
L 479.558994 291.315947 
L 493.485493 294.414579 
L 507.411992 297.51321 
L 521.338491 300.611841 
L 535.26499 303.710472 
L 549.191489 306.809103 
L 563.117988 309.907734 
L 577.044487 313.006365 
L 590.970986 316.104996 
L 604.897485 319.203627 
L 618.823985 322.302258 
" clip-path="url(#p1535249980)" style="fill: none; stroke-dasharray: 11.1,4.8; stroke-dashoffset: 0; stroke: #000000; stroke-width: 3"/>
   </g>
   <g id="line2d_38">
    <path d="M 173.176015 169.644625 
L 187.102515 199.637538 
L 201.029014 224.631576 
L 214.955513 244.989378 
L 228.882012 261.073585 
L 242.808511 273.246837 
L 256.73501 281.871774 
L 270.661509 287.311035 
L 284.588008 289.927262 
L 298.514507 290.083093 
L 312.441006 288.141169 
L 326.367505 284.46413 
L 340.294004 279.414616 
L 354.220503 273.355268 
L 368.147002 266.648724 
L 382.073501 259.657626 
L 396 252.744613 
L 409.926499 246.272325 
L 423.852998 240.603403 
L 437.779497 236.100486 
L 451.705996 233.126215 
L 465.632495 232.043229 
L 479.558994 233.214169 
L 493.485493 237.001674 
L 507.411992 243.768385 
L 521.338491 253.876942 
L 535.26499 267.689984 
L 549.191489 285.570153 
L 563.117988 307.880087 
L 577.044487 334.982428 
L 590.970986 367.239814 
L 604.897485 405.014886 
L 618.823985 448.670285 
" clip-path="url(#p1535249980)" style="fill: none; stroke: #8f4b28; stroke-width: 3; stroke-linecap: square"/>
   </g>
   <g id="line2d_39">
    <path d="M 173.176015 122.317626 
L 187.102515 170.503813 
L 201.029014 213.91861 
L 214.955513 251.175234 
L 228.882012 281.362179 
L 242.808511 303.997623 
L 256.73501 318.983833 
L 270.661509 326.561569 
L 284.588008 327.264486 
L 298.514507 321.873544 
L 312.441006 311.371412 
L 326.367505 296.896868 
L 340.294004 279.699212 
L 354.220503 261.092664 
L 368.147002 242.410771 
L 382.073501 224.960814 
L 396 209.97821 
L 409.926499 198.58092 
L 423.852998 191.723852 
L 437.779497 190.153264 
L 451.705996 194.361173 
L 465.632495 204.539759 
L 479.558994 220.535767 
L 493.485493 241.804915 
L 507.411992 267.366297 
L 521.338491 295.75679 
L 535.26499 324.985458 
L 549.191489 352.487955 
L 563.117988 375.080933 
L 577.044487 388.916445 
L 590.970986 389.436351 
L 604.897485 371.326722 
L 618.823985 328.472245 
" clip-path="url(#p1535249980)" style="fill: none; stroke-dasharray: 19.2,4.8,3,4.8; stroke-dashoffset: 0; stroke: #002fa7; stroke-width: 3"/>
   </g>
   <g id="patch_36">
    <path d="M 144 550.8 
L 144 77.76 
" style="fill: none; stroke: #000000; stroke-width: 2; stroke-linejoin: miter; stroke-linecap: square"/>
   </g>
   <g id="patch_37">
    <path d="M 144 550.8 
L 648 550.8 
" style="fill: none; stroke: #000000; stroke-width: 2; stroke-linejoin: miter; stroke-linecap: square"/>
   </g>
  </g>
 </g>
 <defs>
  <clipPath id="p1535249980">
   <rect x="144" y="77.76" width="504" height="473.04"/>
  </clipPath>
 </defs>
</svg>
