<?xml version="1.0" encoding="utf-8" standalone="no"?>
<!DOCTYPE svg PUBLIC "-//W3C//DTD SVG 1.1//EN"
  "http://www.w3.org/Graphics/SVG/1.1/DTD/svg11.dtd">
<svg xmlns:xlink="http://www.w3.org/1999/xlink" width="720pt" height="648pt" viewBox="0 0 720 648" xmlns="http://www.w3.org/2000/svg" version="1.1">
 <metadata>
  <rdf:RDF xmlns:dc="http://purl.org/dc/elements/1.1/" xmlns:cc="http://creativecommons.org/ns#" xmlns:rdf="http://www.w3.org/1999/02/22-rdf-syntax-ns#">
   <cc:Work>
    <dc:type rdf:resource="http://purl.org/dc/dcmitype/StillImage"/>
    <dc:date>2022-11-13T23:47:46.573706</dc:date>
    <dc:format>image/svg+xml</dc:format>
    <dc:creator>
     <cc:Agent>
      <dc:title>Matplotlib v3.5.2, https://matplotlib.org/</dc:title>
     </cc:Agent>
    </dc:creator>
   </cc:Work>
  </rdf:RDF>
 </metadata>
 <defs>
  <style type="text/css">*{stroke-linejoin: round; stroke-linecap: butt}</style>
 </defs>
 <g id="figure_1">
  <g id="patch_1">
   <path d="M 0 648 
L 720 648 
L 720 0 
L 0 0 
L 0 648 
z
" style="fill: none"/>
  </g>
  <g id="axes_1">
   <g id="patch_2">
    <path d="M 144 550.8 
L 648 550.8 
L 648 77.76 
L 144 77.76 
L 144 550.8 
z
" style="fill: none"/>
   </g>
   <g id="patch_3">
    <path d="M 166.909091 298.876205 
L 179.44294 298.876205 
L 179.44294 99.261818 
L 166.909091 99.261818 
z
" clip-path="url(#p23956efc25)" style="fill: #0095b6; stroke: #696969; stroke-linejoin: miter"/>
   </g>
   <g id="patch_4">
    <path d="M 180.83559 298.876205 
L 193.369439 298.876205 
L 193.369439 127.820621 
L 180.83559 127.820621 
z
" clip-path="url(#p23956efc25)" style="fill: #0095b6; stroke: #696969; stroke-linejoin: miter"/>
   </g>
   <g id="patch_5">
    <path d="M 194.762089 298.876205 
L 207.295938 298.876205 
L 207.295938 163.564845 
L 194.762089 163.564845 
z
" clip-path="url(#p23956efc25)" style="fill: #0095b6; stroke: #696969; stroke-linejoin: miter"/>
   </g>
   <g id="patch_6">
    <path d="M 208.688588 298.876205 
L 221.222437 298.876205 
L 221.222437 186.238156 
L 208.688588 186.238156 
z
" clip-path="url(#p23956efc25)" style="fill: #0095b6; stroke: #696969; stroke-linejoin: miter"/>
   </g>
   <g id="patch_7">
    <path d="M 222.615087 298.876205 
L 235.148936 298.876205 
L 235.148936 193.864726 
L 222.615087 193.864726 
z
" clip-path="url(#p23956efc25)" style="fill: #0095b6; stroke: #696969; stroke-linejoin: miter"/>
   </g>
   <g id="patch_8">
    <path d="M 236.541586 298.876205 
L 249.075435 298.876205 
L 249.075435 225.062194 
L 236.541586 225.062194 
z
" clip-path="url(#p23956efc25)" style="fill: #0095b6; stroke: #696969; stroke-linejoin: miter"/>
   </g>
   <g id="patch_9">
    <path d="M 250.468085 298.876205 
L 263.001934 298.876205 
L 263.001934 216.595944 
L 250.468085 216.595944 
z
" clip-path="url(#p23956efc25)" style="fill: #0095b6; stroke: #696969; stroke-linejoin: miter"/>
   </g>
   <g id="patch_10">
    <path d="M 264.394584 298.876205 
L 276.928433 298.876205 
L 276.928433 224.424187 
L 264.394584 224.424187 
z
" clip-path="url(#p23956efc25)" style="fill: #0095b6; stroke: #696969; stroke-linejoin: miter"/>
   </g>
   <g id="patch_11">
    <path d="M 278.321083 298.876205 
L 290.854932 298.876205 
L 290.854932 210.448418 
L 278.321083 210.448418 
z
" clip-path="url(#p23956efc25)" style="fill: #0095b6; stroke: #696969; stroke-linejoin: miter"/>
   </g>
   <g id="patch_12">
    <path d="M 292.247582 298.876205 
L 304.781431 298.876205 
L 304.781431 254.347178 
L 292.247582 254.347178 
z
" clip-path="url(#p23956efc25)" style="fill: #0095b6; stroke: #696969; stroke-linejoin: miter"/>
   </g>
   <g id="patch_13">
    <path d="M 306.174081 298.876205 
L 318.70793 298.876205 
L 318.70793 301.060984 
L 306.174081 301.060984 
z
" clip-path="url(#p23956efc25)" style="fill: #0095b6; stroke: #696969; stroke-linejoin: miter"/>
   </g>
   <g id="patch_14">
    <path d="M 320.10058 298.876205 
L 332.634429 298.876205 
L 332.634429 261.913414 
L 320.10058 261.913414 
z
" clip-path="url(#p23956efc25)" style="fill: #0095b6; stroke: #696969; stroke-linejoin: miter"/>
   </g>
   <g id="patch_15">
    <path d="M 334.027079 298.876205 
L 346.560928 298.876205 
L 346.560928 265.579977 
L 334.027079 265.579977 
z
" clip-path="url(#p23956efc25)" style="fill: #0095b6; stroke: #696969; stroke-linejoin: miter"/>
   </g>
   <g id="patch_16">
    <path d="M 347.953578 298.876205 
L 360.487427 298.876205 
L 360.487427 276.01539 
L 347.953578 276.01539 
z
" clip-path="url(#p23956efc25)" style="fill: #0095b6; stroke: #696969; stroke-linejoin: miter"/>
   </g>
   <g id="patch_17">
    <path d="M 361.880077 298.876205 
L 374.413926 298.876205 
L 374.413926 289.749163 
L 361.880077 289.749163 
z
" clip-path="url(#p23956efc25)" style="fill: #0095b6; stroke: #696969; stroke-linejoin: miter"/>
   </g>
   <g id="patch_18">
    <path d="M 375.806576 298.876205 
L 388.340426 298.876205 
L 388.340426 283.061223 
L 375.806576 283.061223 
z
" clip-path="url(#p23956efc25)" style="fill: #0095b6; stroke: #696969; stroke-linejoin: miter"/>
   </g>
   <g id="patch_19">
    <path d="M 389.733075 298.876205 
L 402.266925 298.876205 
L 402.266925 260.989115 
L 389.733075 260.989115 
z
" clip-path="url(#p23956efc25)" style="fill: #0095b6; stroke: #696969; stroke-linejoin: miter"/>
   </g>
   <g id="patch_20">
    <path d="M 403.659574 298.876205 
L 416.193424 298.876205 
L 416.193424 278.5228 
L 403.659574 278.5228 
z
" clip-path="url(#p23956efc25)" style="fill: #0095b6; stroke: #696969; stroke-linejoin: miter"/>
   </g>
   <g id="patch_21">
    <path d="M 417.586074 298.876205 
L 430.119923 298.876205 
L 430.119923 307.431707 
L 417.586074 307.431707 
z
" clip-path="url(#p23956efc25)" style="fill: #0095b6; stroke: #696969; stroke-linejoin: miter"/>
   </g>
   <g id="patch_22">
    <path d="M 431.512573 298.876205 
L 444.046422 298.876205 
L 444.046422 313.564596 
L 431.512573 313.564596 
z
" clip-path="url(#p23956efc25)" style="fill: #0095b6; stroke: #696969; stroke-linejoin: miter"/>
   </g>
   <g id="patch_23">
    <path d="M 445.439072 298.876205 
L 457.972921 298.876205 
L 457.972921 335.462582 
L 445.439072 335.462582 
z
" clip-path="url(#p23956efc25)" style="fill: #0095b6; stroke: #696969; stroke-linejoin: miter"/>
   </g>
   <g id="patch_24">
    <path d="M 459.365571 298.876205 
L 471.89942 298.876205 
L 471.89942 350.755563 
L 459.365571 350.755563 
z
" clip-path="url(#p23956efc25)" style="fill: #0095b6; stroke: #696969; stroke-linejoin: miter"/>
   </g>
   <g id="patch_25">
    <path d="M 473.29207 298.876205 
L 485.825919 298.876205 
L 485.825919 349.400545 
L 473.29207 349.400545 
z
" clip-path="url(#p23956efc25)" style="fill: #0095b6; stroke: #696969; stroke-linejoin: miter"/>
   </g>
   <g id="patch_26">
    <path d="M 487.218569 298.876205 
L 499.752418 298.876205 
L 499.752418 368.730165 
L 487.218569 368.730165 
z
" clip-path="url(#p23956efc25)" style="fill: #0095b6; stroke: #696969; stroke-linejoin: miter"/>
   </g>
   <g id="patch_27">
    <path d="M 501.145068 298.876205 
L 513.678917 298.876205 
L 513.678917 374.633034 
L 501.145068 374.633034 
z
" clip-path="url(#p23956efc25)" style="fill: #0095b6; stroke: #696969; stroke-linejoin: miter"/>
   </g>
   <g id="patch_28">
    <path d="M 515.071567 298.876205 
L 527.605416 298.876205 
L 527.605416 388.414089 
L 515.071567 388.414089 
z
" clip-path="url(#p23956efc25)" style="fill: #0095b6; stroke: #696969; stroke-linejoin: miter"/>
   </g>
   <g id="patch_29">
    <path d="M 528.998066 298.876205 
L 541.531915 298.876205 
L 541.531915 395.255499 
L 528.998066 395.255499 
z
" clip-path="url(#p23956efc25)" style="fill: #0095b6; stroke: #696969; stroke-linejoin: miter"/>
   </g>
   <g id="patch_30">
    <path d="M 542.924565 298.876205 
L 555.458414 298.876205 
L 555.458414 440.490569 
L 542.924565 440.490569 
z
" clip-path="url(#p23956efc25)" style="fill: #0095b6; stroke: #696969; stroke-linejoin: miter"/>
   </g>
   <g id="patch_31">
    <path d="M 556.851064 298.876205 
L 569.384913 298.876205 
L 569.384913 422.889061 
L 556.851064 422.889061 
z
" clip-path="url(#p23956efc25)" style="fill: #0095b6; stroke: #696969; stroke-linejoin: miter"/>
   </g>
   <g id="patch_32">
    <path d="M 570.777563 298.876205 
L 583.311412 298.876205 
L 583.311412 466.941603 
L 570.777563 466.941603 
z
" clip-path="url(#p23956efc25)" style="fill: #0095b6; stroke: #696969; stroke-linejoin: miter"/>
   </g>
   <g id="patch_33">
    <path d="M 584.704062 298.876205 
L 597.237911 298.876205 
L 597.237911 507.812738 
L 584.704062 507.812738 
z
" clip-path="url(#p23956efc25)" style="fill: #0095b6; stroke: #696969; stroke-linejoin: miter"/>
   </g>
   <g id="patch_34">
    <path d="M 598.630561 298.876205 
L 611.16441 298.876205 
L 611.16441 529.298182 
L 598.630561 529.298182 
z
" clip-path="url(#p23956efc25)" style="fill: #0095b6; stroke: #696969; stroke-linejoin: miter"/>
   </g>
   <g id="patch_35">
    <path d="M 612.55706 298.876205 
L 625.090909 298.876205 
L 625.090909 432.777727 
L 612.55706 432.777727 
z
" clip-path="url(#p23956efc25)" style="fill: #0095b6; stroke: #696969; stroke-linejoin: miter"/>
   </g>
   <g id="matplotlib.axis_1">
    <g id="xtick_1">
     <g id="line2d_1">
      <defs>
       <path id="m3714817da3" d="M 0 0 
L 0 3.5 
" style="stroke: #000000; stroke-width: 0.8"/>
      </defs>
      <g>
       <use xlink:href="#m3714817da3" x="173.176015" y="550.8" style="stroke: #000000; stroke-width: 0.8"/>
      </g>
     </g>
     <g id="text_1">
      <!-- 46 -->
      <g transform="translate(149.820078 587.862813)scale(0.42 -0.42)">
       <defs>
        <path id="ArialMT-34" d="M 2069 0 
L 2069 1097 
L 81 1097 
L 81 1613 
L 2172 4581 
L 2631 4581 
L 2631 1613 
L 3250 1613 
L 3250 1097 
L 2631 1097 
L 2631 0 
L 2069 0 
z
M 2069 1613 
L 2069 3678 
L 634 1613 
L 2069 1613 
z
" transform="scale(0.015625)"/>
        <path id="ArialMT-36" d="M 3184 3459 
L 2625 3416 
Q 2550 3747 2413 3897 
Q 2184 4138 1850 4138 
Q 1581 4138 1378 3988 
Q 1113 3794 959 3422 
Q 806 3050 800 2363 
Q 1003 2672 1297 2822 
Q 1591 2972 1913 2972 
Q 2475 2972 2870 2558 
Q 3266 2144 3266 1488 
Q 3266 1056 3080 686 
Q 2894 316 2569 119 
Q 2244 -78 1831 -78 
Q 1128 -78 684 439 
Q 241 956 241 2144 
Q 241 3472 731 4075 
Q 1159 4600 1884 4600 
Q 2425 4600 2770 4297 
Q 3116 3994 3184 3459 
z
M 888 1484 
Q 888 1194 1011 928 
Q 1134 663 1356 523 
Q 1578 384 1822 384 
Q 2178 384 2434 671 
Q 2691 959 2691 1453 
Q 2691 1928 2437 2201 
Q 2184 2475 1800 2475 
Q 1419 2475 1153 2201 
Q 888 1928 888 1484 
z
" transform="scale(0.015625)"/>
       </defs>
       <use xlink:href="#ArialMT-34"/>
       <use xlink:href="#ArialMT-36" x="55.615234"/>
      </g>
     </g>
    </g>
    <g id="xtick_2">
     <g id="line2d_2">
      <g>
       <use xlink:href="#m3714817da3" x="187.102515" y="550.8" style="stroke: #000000; stroke-width: 0.8"/>
      </g>
     </g>
    </g>
    <g id="xtick_3">
     <g id="line2d_3">
      <g>
       <use xlink:href="#m3714817da3" x="201.029014" y="550.8" style="stroke: #000000; stroke-width: 0.8"/>
      </g>
     </g>
    </g>
    <g id="xtick_4">
     <g id="line2d_4">
      <g>
       <use xlink:href="#m3714817da3" x="214.955513" y="550.8" style="stroke: #000000; stroke-width: 0.8"/>
      </g>
     </g>
    </g>
    <g id="xtick_5">
     <g id="line2d_5">
      <g>
       <use xlink:href="#m3714817da3" x="228.882012" y="550.8" style="stroke: #000000; stroke-width: 0.8"/>
      </g>
     </g>
    </g>
    <g id="xtick_6">
     <g id="line2d_6">
      <g>
       <use xlink:href="#m3714817da3" x="242.808511" y="550.8" style="stroke: #000000; stroke-width: 0.8"/>
      </g>
     </g>
    </g>
    <g id="xtick_7">
     <g id="line2d_7">
      <g>
       <use xlink:href="#m3714817da3" x="256.73501" y="550.8" style="stroke: #000000; stroke-width: 0.8"/>
      </g>
     </g>
    </g>
    <g id="xtick_8">
     <g id="line2d_8">
      <g>
       <use xlink:href="#m3714817da3" x="270.661509" y="550.8" style="stroke: #000000; stroke-width: 0.8"/>
      </g>
     </g>
    </g>
    <g id="xtick_9">
     <g id="line2d_9">
      <g>
       <use xlink:href="#m3714817da3" x="284.588008" y="550.8" style="stroke: #000000; stroke-width: 0.8"/>
      </g>
     </g>
     <g id="text_2">
      <!-- 54 -->
      <g transform="translate(261.23207 587.862813)scale(0.42 -0.42)">
       <defs>
        <path id="ArialMT-35" d="M 266 1200 
L 856 1250 
Q 922 819 1161 601 
Q 1400 384 1738 384 
Q 2144 384 2425 690 
Q 2706 997 2706 1503 
Q 2706 1984 2436 2262 
Q 2166 2541 1728 2541 
Q 1456 2541 1237 2417 
Q 1019 2294 894 2097 
L 366 2166 
L 809 4519 
L 3088 4519 
L 3088 3981 
L 1259 3981 
L 1013 2750 
Q 1425 3038 1878 3038 
Q 2478 3038 2890 2622 
Q 3303 2206 3303 1553 
Q 3303 931 2941 478 
Q 2500 -78 1738 -78 
Q 1113 -78 717 272 
Q 322 622 266 1200 
z
" transform="scale(0.015625)"/>
       </defs>
       <use xlink:href="#ArialMT-35"/>
       <use xlink:href="#ArialMT-34" x="55.615234"/>
      </g>
     </g>
    </g>
    <g id="xtick_10">
     <g id="line2d_10">
      <g>
       <use xlink:href="#m3714817da3" x="298.514507" y="550.8" style="stroke: #000000; stroke-width: 0.8"/>
      </g>
     </g>
    </g>
    <g id="xtick_11">
     <g id="line2d_11">
      <g>
       <use xlink:href="#m3714817da3" x="312.441006" y="550.8" style="stroke: #000000; stroke-width: 0.8"/>
      </g>
     </g>
    </g>
    <g id="xtick_12">
     <g id="line2d_12">
      <g>
       <use xlink:href="#m3714817da3" x="326.367505" y="550.8" style="stroke: #000000; stroke-width: 0.8"/>
      </g>
     </g>
    </g>
    <g id="xtick_13">
     <g id="line2d_13">
      <g>
       <use xlink:href="#m3714817da3" x="340.294004" y="550.8" style="stroke: #000000; stroke-width: 0.8"/>
      </g>
     </g>
    </g>
    <g id="xtick_14">
     <g id="line2d_14">
      <g>
       <use xlink:href="#m3714817da3" x="354.220503" y="550.8" style="stroke: #000000; stroke-width: 0.8"/>
      </g>
     </g>
    </g>
    <g id="xtick_15">
     <g id="line2d_15">
      <g>
       <use xlink:href="#m3714817da3" x="368.147002" y="550.8" style="stroke: #000000; stroke-width: 0.8"/>
      </g>
     </g>
    </g>
    <g id="xtick_16">
     <g id="line2d_16">
      <g>
       <use xlink:href="#m3714817da3" x="382.073501" y="550.8" style="stroke: #000000; stroke-width: 0.8"/>
      </g>
     </g>
    </g>
    <g id="xtick_17">
     <g id="line2d_17">
      <g>
       <use xlink:href="#m3714817da3" x="396" y="550.8" style="stroke: #000000; stroke-width: 0.8"/>
      </g>
     </g>
     <g id="text_3">
      <!-- 62 -->
      <g transform="translate(372.644062 587.862813)scale(0.42 -0.42)">
       <defs>
        <path id="ArialMT-32" d="M 3222 541 
L 3222 0 
L 194 0 
Q 188 203 259 391 
Q 375 700 629 1000 
Q 884 1300 1366 1694 
Q 2113 2306 2375 2664 
Q 2638 3022 2638 3341 
Q 2638 3675 2398 3904 
Q 2159 4134 1775 4134 
Q 1369 4134 1125 3890 
Q 881 3647 878 3216 
L 300 3275 
Q 359 3922 746 4261 
Q 1134 4600 1788 4600 
Q 2447 4600 2831 4234 
Q 3216 3869 3216 3328 
Q 3216 3053 3103 2787 
Q 2991 2522 2730 2228 
Q 2469 1934 1863 1422 
Q 1356 997 1212 845 
Q 1069 694 975 541 
L 3222 541 
z
" transform="scale(0.015625)"/>
       </defs>
       <use xlink:href="#ArialMT-36"/>
       <use xlink:href="#ArialMT-32" x="55.615234"/>
      </g>
     </g>
    </g>
    <g id="xtick_18">
     <g id="line2d_18">
      <g>
       <use xlink:href="#m3714817da3" x="409.926499" y="550.8" style="stroke: #000000; stroke-width: 0.8"/>
      </g>
     </g>
    </g>
    <g id="xtick_19">
     <g id="line2d_19">
      <g>
       <use xlink:href="#m3714817da3" x="423.852998" y="550.8" style="stroke: #000000; stroke-width: 0.8"/>
      </g>
     </g>
    </g>
    <g id="xtick_20">
     <g id="line2d_20">
      <g>
       <use xlink:href="#m3714817da3" x="437.779497" y="550.8" style="stroke: #000000; stroke-width: 0.8"/>
      </g>
     </g>
    </g>
    <g id="xtick_21">
     <g id="line2d_21">
      <g>
       <use xlink:href="#m3714817da3" x="451.705996" y="550.8" style="stroke: #000000; stroke-width: 0.8"/>
      </g>
     </g>
    </g>
    <g id="xtick_22">
     <g id="line2d_22">
      <g>
       <use xlink:href="#m3714817da3" x="465.632495" y="550.8" style="stroke: #000000; stroke-width: 0.8"/>
      </g>
     </g>
    </g>
    <g id="xtick_23">
     <g id="line2d_23">
      <g>
       <use xlink:href="#m3714817da3" x="479.558994" y="550.8" style="stroke: #000000; stroke-width: 0.8"/>
      </g>
     </g>
    </g>
    <g id="xtick_24">
     <g id="line2d_24">
      <g>
       <use xlink:href="#m3714817da3" x="493.485493" y="550.8" style="stroke: #000000; stroke-width: 0.8"/>
      </g>
     </g>
    </g>
    <g id="xtick_25">
     <g id="line2d_25">
      <g>
       <use xlink:href="#m3714817da3" x="507.411992" y="550.8" style="stroke: #000000; stroke-width: 0.8"/>
      </g>
     </g>
     <g id="text_4">
      <!-- 70 -->
      <g transform="translate(484.056055 587.862813)scale(0.42 -0.42)">
       <defs>
        <path id="ArialMT-37" d="M 303 3981 
L 303 4522 
L 3269 4522 
L 3269 4084 
Q 2831 3619 2401 2847 
Q 1972 2075 1738 1259 
Q 1569 684 1522 0 
L 944 0 
Q 953 541 1156 1306 
Q 1359 2072 1739 2783 
Q 2119 3494 2547 3981 
L 303 3981 
z
" transform="scale(0.015625)"/>
        <path id="ArialMT-30" d="M 266 2259 
Q 266 3072 433 3567 
Q 600 4063 929 4331 
Q 1259 4600 1759 4600 
Q 2128 4600 2406 4451 
Q 2684 4303 2865 4023 
Q 3047 3744 3150 3342 
Q 3253 2941 3253 2259 
Q 3253 1453 3087 958 
Q 2922 463 2592 192 
Q 2263 -78 1759 -78 
Q 1097 -78 719 397 
Q 266 969 266 2259 
z
M 844 2259 
Q 844 1131 1108 757 
Q 1372 384 1759 384 
Q 2147 384 2411 759 
Q 2675 1134 2675 2259 
Q 2675 3391 2411 3762 
Q 2147 4134 1753 4134 
Q 1366 4134 1134 3806 
Q 844 3388 844 2259 
z
" transform="scale(0.015625)"/>
       </defs>
       <use xlink:href="#ArialMT-37"/>
       <use xlink:href="#ArialMT-30" x="55.615234"/>
      </g>
     </g>
    </g>
    <g id="xtick_26">
     <g id="line2d_26">
      <g>
       <use xlink:href="#m3714817da3" x="521.338491" y="550.8" style="stroke: #000000; stroke-width: 0.8"/>
      </g>
     </g>
    </g>
    <g id="xtick_27">
     <g id="line2d_27">
      <g>
       <use xlink:href="#m3714817da3" x="535.26499" y="550.8" style="stroke: #000000; stroke-width: 0.8"/>
      </g>
     </g>
    </g>
    <g id="xtick_28">
     <g id="line2d_28">
      <g>
       <use xlink:href="#m3714817da3" x="549.191489" y="550.8" style="stroke: #000000; stroke-width: 0.8"/>
      </g>
     </g>
    </g>
    <g id="xtick_29">
     <g id="line2d_29">
      <g>
       <use xlink:href="#m3714817da3" x="563.117988" y="550.8" style="stroke: #000000; stroke-width: 0.8"/>
      </g>
     </g>
    </g>
    <g id="xtick_30">
     <g id="line2d_30">
      <g>
       <use xlink:href="#m3714817da3" x="577.044487" y="550.8" style="stroke: #000000; stroke-width: 0.8"/>
      </g>
     </g>
    </g>
    <g id="xtick_31">
     <g id="line2d_31">
      <g>
       <use xlink:href="#m3714817da3" x="590.970986" y="550.8" style="stroke: #000000; stroke-width: 0.8"/>
      </g>
     </g>
    </g>
    <g id="xtick_32">
     <g id="line2d_32">
      <g>
       <use xlink:href="#m3714817da3" x="604.897485" y="550.8" style="stroke: #000000; stroke-width: 0.8"/>
      </g>
     </g>
    </g>
    <g id="xtick_33">
     <g id="line2d_33">
      <g>
       <use xlink:href="#m3714817da3" x="618.823985" y="550.8" style="stroke: #000000; stroke-width: 0.8"/>
      </g>
     </g>
     <g id="text_5">
      <!-- 78 -->
      <g transform="translate(595.468047 587.862813)scale(0.42 -0.42)">
       <defs>
        <path id="ArialMT-38" d="M 1131 2484 
Q 781 2613 612 2850 
Q 444 3088 444 3419 
Q 444 3919 803 4259 
Q 1163 4600 1759 4600 
Q 2359 4600 2725 4251 
Q 3091 3903 3091 3403 
Q 3091 3084 2923 2848 
Q 2756 2613 2416 2484 
Q 2838 2347 3058 2040 
Q 3278 1734 3278 1309 
Q 3278 722 2862 322 
Q 2447 -78 1769 -78 
Q 1091 -78 675 323 
Q 259 725 259 1325 
Q 259 1772 486 2073 
Q 713 2375 1131 2484 
z
M 1019 3438 
Q 1019 3113 1228 2906 
Q 1438 2700 1772 2700 
Q 2097 2700 2305 2904 
Q 2513 3109 2513 3406 
Q 2513 3716 2298 3927 
Q 2084 4138 1766 4138 
Q 1444 4138 1231 3931 
Q 1019 3725 1019 3438 
z
M 838 1322 
Q 838 1081 952 856 
Q 1066 631 1291 507 
Q 1516 384 1775 384 
Q 2178 384 2440 643 
Q 2703 903 2703 1303 
Q 2703 1709 2433 1975 
Q 2163 2241 1756 2241 
Q 1359 2241 1098 1978 
Q 838 1716 838 1322 
z
" transform="scale(0.015625)"/>
       </defs>
       <use xlink:href="#ArialMT-37"/>
       <use xlink:href="#ArialMT-38" x="55.615234"/>
      </g>
     </g>
    </g>
   </g>
   <g id="matplotlib.axis_2">
    <g id="ytick_1">
     <g id="line2d_34">
      <defs>
       <path id="mfc10baefdb" d="M 0 0 
L -3.5 0 
" style="stroke: #000000; stroke-width: 0.8"/>
      </defs>
      <g>
       <use xlink:href="#mfc10baefdb" x="144" y="530.824519" style="stroke: #000000; stroke-width: 0.8"/>
      </g>
     </g>
     <g id="text_6">
      <!-- −5.0 -->
      <g transform="translate(54.089375 545.855925)scale(0.42 -0.42)">
       <defs>
        <path id="ArialMT-2212" d="M 3381 1997 
L 356 1997 
L 356 2522 
L 3381 2522 
L 3381 1997 
z
" transform="scale(0.015625)"/>
        <path id="ArialMT-2e" d="M 581 0 
L 581 641 
L 1222 641 
L 1222 0 
L 581 0 
z
" transform="scale(0.015625)"/>
       </defs>
       <use xlink:href="#ArialMT-2212"/>
       <use xlink:href="#ArialMT-35" x="58.398438"/>
       <use xlink:href="#ArialMT-2e" x="114.013672"/>
       <use xlink:href="#ArialMT-30" x="141.796875"/>
      </g>
     </g>
    </g>
    <g id="ytick_2">
     <g id="line2d_35">
      <g>
       <use xlink:href="#mfc10baefdb" x="144" y="414.850362" style="stroke: #000000; stroke-width: 0.8"/>
      </g>
     </g>
     <g id="text_7">
      <!-- −2.5 -->
      <g transform="translate(54.089375 429.881768)scale(0.42 -0.42)">
       <use xlink:href="#ArialMT-2212"/>
       <use xlink:href="#ArialMT-32" x="58.398438"/>
       <use xlink:href="#ArialMT-2e" x="114.013672"/>
       <use xlink:href="#ArialMT-35" x="141.796875"/>
      </g>
     </g>
    </g>
    <g id="ytick_3">
     <g id="line2d_36">
      <g>
       <use xlink:href="#mfc10baefdb" x="144" y="298.876205" style="stroke: #000000; stroke-width: 0.8"/>
      </g>
     </g>
     <g id="text_8">
      <!-- 0.0 -->
      <g transform="translate(78.62 313.907611)scale(0.42 -0.42)">
       <use xlink:href="#ArialMT-30"/>
       <use xlink:href="#ArialMT-2e" x="55.615234"/>
       <use xlink:href="#ArialMT-30" x="83.398438"/>
      </g>
     </g>
    </g>
    <g id="ytick_4">
     <g id="line2d_37">
      <g>
       <use xlink:href="#mfc10baefdb" x="144" y="182.902047" style="stroke: #000000; stroke-width: 0.8"/>
      </g>
     </g>
     <g id="text_9">
      <!-- 2.5 -->
      <g transform="translate(78.62 197.933454)scale(0.42 -0.42)">
       <use xlink:href="#ArialMT-32"/>
       <use xlink:href="#ArialMT-2e" x="55.615234"/>
       <use xlink:href="#ArialMT-35" x="83.398438"/>
      </g>
     </g>
    </g>
    <g id="text_10">
     <!-- Mean PAD -->
     <g transform="translate(40.946875 423.795937)rotate(-90)scale(0.46 -0.46)">
      <defs>
       <path id="ArialMT-4d" d="M 475 0 
L 475 4581 
L 1388 4581 
L 2472 1338 
Q 2622 884 2691 659 
Q 2769 909 2934 1394 
L 4031 4581 
L 4847 4581 
L 4847 0 
L 4263 0 
L 4263 3834 
L 2931 0 
L 2384 0 
L 1059 3900 
L 1059 0 
L 475 0 
z
" transform="scale(0.015625)"/>
       <path id="ArialMT-65" d="M 2694 1069 
L 3275 997 
Q 3138 488 2766 206 
Q 2394 -75 1816 -75 
Q 1088 -75 661 373 
Q 234 822 234 1631 
Q 234 2469 665 2931 
Q 1097 3394 1784 3394 
Q 2450 3394 2872 2941 
Q 3294 2488 3294 1666 
Q 3294 1616 3291 1516 
L 816 1516 
Q 847 969 1125 678 
Q 1403 388 1819 388 
Q 2128 388 2347 550 
Q 2566 713 2694 1069 
z
M 847 1978 
L 2700 1978 
Q 2663 2397 2488 2606 
Q 2219 2931 1791 2931 
Q 1403 2931 1139 2672 
Q 875 2413 847 1978 
z
" transform="scale(0.015625)"/>
       <path id="ArialMT-61" d="M 2588 409 
Q 2275 144 1986 34 
Q 1697 -75 1366 -75 
Q 819 -75 525 192 
Q 231 459 231 875 
Q 231 1119 342 1320 
Q 453 1522 633 1644 
Q 813 1766 1038 1828 
Q 1203 1872 1538 1913 
Q 2219 1994 2541 2106 
Q 2544 2222 2544 2253 
Q 2544 2597 2384 2738 
Q 2169 2928 1744 2928 
Q 1347 2928 1158 2789 
Q 969 2650 878 2297 
L 328 2372 
Q 403 2725 575 2942 
Q 747 3159 1072 3276 
Q 1397 3394 1825 3394 
Q 2250 3394 2515 3294 
Q 2781 3194 2906 3042 
Q 3031 2891 3081 2659 
Q 3109 2516 3109 2141 
L 3109 1391 
Q 3109 606 3145 398 
Q 3181 191 3288 0 
L 2700 0 
Q 2613 175 2588 409 
z
M 2541 1666 
Q 2234 1541 1622 1453 
Q 1275 1403 1131 1340 
Q 988 1278 909 1158 
Q 831 1038 831 891 
Q 831 666 1001 516 
Q 1172 366 1500 366 
Q 1825 366 2078 508 
Q 2331 650 2450 897 
Q 2541 1088 2541 1459 
L 2541 1666 
z
" transform="scale(0.015625)"/>
       <path id="ArialMT-6e" d="M 422 0 
L 422 3319 
L 928 3319 
L 928 2847 
Q 1294 3394 1984 3394 
Q 2284 3394 2536 3286 
Q 2788 3178 2913 3003 
Q 3038 2828 3088 2588 
Q 3119 2431 3119 2041 
L 3119 0 
L 2556 0 
L 2556 2019 
Q 2556 2363 2490 2533 
Q 2425 2703 2258 2804 
Q 2091 2906 1866 2906 
Q 1506 2906 1245 2678 
Q 984 2450 984 1813 
L 984 0 
L 422 0 
z
" transform="scale(0.015625)"/>
       <path id="ArialMT-20" transform="scale(0.015625)"/>
       <path id="ArialMT-50" d="M 494 0 
L 494 4581 
L 2222 4581 
Q 2678 4581 2919 4538 
Q 3256 4481 3484 4323 
Q 3713 4166 3852 3881 
Q 3991 3597 3991 3256 
Q 3991 2672 3619 2267 
Q 3247 1863 2275 1863 
L 1100 1863 
L 1100 0 
L 494 0 
z
M 1100 2403 
L 2284 2403 
Q 2872 2403 3119 2622 
Q 3366 2841 3366 3238 
Q 3366 3525 3220 3729 
Q 3075 3934 2838 4000 
Q 2684 4041 2272 4041 
L 1100 4041 
L 1100 2403 
z
" transform="scale(0.015625)"/>
       <path id="ArialMT-41" d="M -9 0 
L 1750 4581 
L 2403 4581 
L 4278 0 
L 3588 0 
L 3053 1388 
L 1138 1388 
L 634 0 
L -9 0 
z
M 1313 1881 
L 2866 1881 
L 2388 3150 
Q 2169 3728 2063 4100 
Q 1975 3659 1816 3225 
L 1313 1881 
z
" transform="scale(0.015625)"/>
       <path id="ArialMT-44" d="M 494 0 
L 494 4581 
L 2072 4581 
Q 2606 4581 2888 4516 
Q 3281 4425 3559 4188 
Q 3922 3881 4101 3404 
Q 4281 2928 4281 2316 
Q 4281 1794 4159 1391 
Q 4038 988 3847 723 
Q 3656 459 3429 307 
Q 3203 156 2883 78 
Q 2563 0 2147 0 
L 494 0 
z
M 1100 541 
L 2078 541 
Q 2531 541 2789 625 
Q 3047 709 3200 863 
Q 3416 1078 3536 1442 
Q 3656 1806 3656 2325 
Q 3656 3044 3420 3430 
Q 3184 3816 2847 3947 
Q 2603 4041 2063 4041 
L 1100 4041 
L 1100 541 
z
" transform="scale(0.015625)"/>
      </defs>
      <use xlink:href="#ArialMT-4d"/>
      <use xlink:href="#ArialMT-65" x="83.300781"/>
      <use xlink:href="#ArialMT-61" x="138.916016"/>
      <use xlink:href="#ArialMT-6e" x="194.53125"/>
      <use xlink:href="#ArialMT-20" x="250.146484"/>
      <use xlink:href="#ArialMT-50" x="277.929688"/>
      <use xlink:href="#ArialMT-41" x="337.253906"/>
      <use xlink:href="#ArialMT-44" x="403.953125"/>
     </g>
    </g>
   </g>
   <g id="line2d_38">
    <path d="M 173.176015 137.796015 
L 187.102515 148.317056 
L 201.029014 158.838096 
L 214.955513 169.359137 
L 228.882012 179.880177 
L 242.808511 190.401217 
L 256.73501 200.922258 
L 270.661509 211.443298 
L 284.588008 221.964338 
L 298.514507 232.485379 
L 312.441006 243.006419 
L 326.367505 253.527459 
L 340.294004 264.0485 
L 354.220503 274.56954 
L 368.147002 285.09058 
L 382.073501 295.611621 
L 396 306.132661 
L 409.926499 316.653701 
L 423.852998 327.174742 
L 437.779497 337.695782 
L 451.705996 348.216822 
L 465.632495 358.737863 
L 479.558994 369.258903 
L 493.485493 379.779943 
L 507.411992 390.300984 
L 521.338491 400.822024 
L 535.26499 411.343064 
L 549.191489 421.864105 
L 563.117988 432.385145 
L 577.044487 442.906185 
L 590.970986 453.427226 
L 604.897485 463.948266 
L 618.823985 474.469306 
" clip-path="url(#p23956efc25)" style="fill: none; stroke-dasharray: 11.1,4.8; stroke-dashoffset: 0; stroke: #000000; stroke-width: 3"/>
   </g>
   <g id="line2d_39">
    <path d="M 173.176015 121.154392 
L 187.102515 140.040899 
L 201.029014 157.372506 
L 214.955513 173.262012 
L 228.882012 187.822216 
L 242.808511 201.165918 
L 256.73501 213.405915 
L 270.661509 224.655009 
L 284.588008 235.025997 
L 298.514507 244.63168 
L 312.441006 253.584855 
L 326.367505 261.998323 
L 340.294004 269.984883 
L 354.220503 277.657333 
L 368.147002 285.128474 
L 382.073501 292.511104 
L 396 299.918022 
L 409.926499 307.462028 
L 423.852998 315.255921 
L 437.779497 323.412499 
L 451.705996 332.044563 
L 465.632495 341.264911 
L 479.558994 351.186343 
L 493.485493 361.921658 
L 507.411992 373.583655 
L 521.338491 386.285133 
L 535.26499 400.138891 
L 549.191489 415.257729 
L 563.117988 431.754445 
L 577.044487 449.74184 
L 590.970986 469.332712 
L 604.897485 490.63986 
L 618.823985 513.776084 
" clip-path="url(#p23956efc25)" style="fill: none; stroke: #8f4b28; stroke-width: 3; stroke-linecap: square"/>
   </g>
   <g id="line2d_40">
    <path d="M 173.176015 106.433328 
L 187.102515 130.978853 
L 201.029014 154.040238 
L 214.955513 175.186123 
L 228.882012 194.132984 
L 242.808511 210.73095 
L 256.73501 224.949622 
L 270.661509 236.863888 
L 284.588008 246.639741 
L 298.514507 254.5201 
L 312.441006 260.810623 
L 326.367505 265.865527 
L 340.294004 270.073406 
L 354.220503 273.84305 
L 368.147002 277.589258 
L 382.073501 281.71866 
L 396 286.615532 
L 409.926499 292.627615 
L 423.852998 300.051935 
L 437.779497 309.120615 
L 451.705996 319.986696 
L 465.632495 332.709957 
L 479.558994 347.242726 
L 493.485493 363.415706 
L 507.411992 380.923786 
L 521.338491 399.31186 
L 535.26499 417.960649 
L 549.191489 436.072513 
L 563.117988 452.65727 
L 577.044487 466.518017 
L 590.970986 476.236945 
L 604.897485 480.161156 
L 618.823985 476.388481 
" clip-path="url(#p23956efc25)" style="fill: none; stroke-dasharray: 19.2,4.8,3,4.8; stroke-dashoffset: 0; stroke: #002fa7; stroke-width: 3"/>
   </g>
   <g id="patch_36">
    <path d="M 144 550.8 
L 144 77.76 
" style="fill: none; stroke: #000000; stroke-width: 2; stroke-linejoin: miter; stroke-linecap: square"/>
   </g>
   <g id="patch_37">
    <path d="M 144 550.8 
L 648 550.8 
" style="fill: none; stroke: #000000; stroke-width: 2; stroke-linejoin: miter; stroke-linecap: square"/>
   </g>
  </g>
 </g>
 <defs>
  <clipPath id="p23956efc25">
   <rect x="144" y="77.76" width="504" height="473.04"/>
  </clipPath>
 </defs>
</svg>
